<svg width="208" height="51" viewBox="0 0 208 51" fill="none" xmlns="http://www.w3.org/2000/svg">
<path d="M18.7788 10.532V44.786H22.2768C22.9368 44.786 23.2668 45.116 23.2668 45.776V49.01C23.2668 49.67 22.9368 50 22.2768 50H7.88879C7.22879 50 6.89879 49.67 6.89879 49.01V45.776C6.89879 45.116 7.22879 44.786 7.88879 44.786H11.3868V10.532H7.88879C7.22879 10.532 6.89879 10.202 6.89879 9.542V6.176C6.89879 5.516 7.22879 5.186 7.88879 5.186H22.2768C22.9368 5.186 23.2668 5.516 23.2668 6.176V9.542C23.2668 10.202 22.9368 10.532 22.2768 10.532H18.7788ZM28.489 49.01V45.776C28.489 45.116 28.819 44.786 29.479 44.786H32.977V10.532H29.545C28.885 10.532 28.555 10.202 28.555 9.542V6.176C28.555 5.472 28.885 5.12 29.545 5.12C34.825 4.9 39.841 4.79 44.593 4.79C49.345 4.79 53.129 5.714 55.945 7.562C58.805 9.366 60.235 11.962 60.235 15.35C60.235 17.814 59.465 19.97 57.925 21.818C56.429 23.622 54.647 24.942 52.579 25.778C55.967 26.306 58.541 27.56 60.301 29.54C62.105 31.52 63.007 33.94 63.007 36.8C63.007 40.54 61.621 43.576 58.849 45.908C56.077 48.196 52.403 49.494 47.827 49.802C45.935 49.934 42.899 50 38.719 50H29.479C28.819 50 28.489 49.67 28.489 49.01ZM40.369 29.21V44.918H43.339C47.211 44.918 50.203 44.302 52.315 43.07C54.471 41.838 55.549 39.704 55.549 36.668C55.549 31.696 52.073 29.21 45.121 29.21H40.369ZM40.369 10.136V23.732H42.877C49.389 23.732 52.645 21.466 52.645 16.934C52.645 14.382 51.853 12.622 50.269 11.654C48.685 10.642 46.419 10.136 43.471 10.136H40.369ZM83.3294 4.064C86.5854 4.064 89.8414 4.548 93.0974 5.516C93.7134 5.692 94.0214 6.088 94.0214 6.704V15.812C94.0214 16.472 93.6914 16.802 93.0314 16.802H89.3354C88.6754 16.802 88.3674 16.472 88.4114 15.812L88.6094 11.39C86.8494 10.334 84.8914 9.806 82.7354 9.806C80.5794 9.806 78.8414 10.334 77.5214 11.39C76.2454 12.402 75.6074 13.832 75.6074 15.68C75.6074 17.528 76.2014 19.046 77.3894 20.234C78.5774 21.378 80.2714 22.368 82.4714 23.204C84.6714 24.04 86.1454 24.612 86.8934 24.92C87.6414 25.228 88.7194 25.8 90.1274 26.636C91.5794 27.472 92.6354 28.308 93.2954 29.144C93.9994 29.936 94.6374 31.014 95.2094 32.378C95.8254 33.742 96.1334 35.26 96.1334 36.932C96.1334 41.288 94.7474 44.698 91.9754 47.162C89.2474 49.582 85.3534 50.792 80.2934 50.792C76.5534 50.792 72.8574 50.22 69.2054 49.076C68.5894 48.9 68.2814 48.504 68.2814 47.888V37.394C68.2814 36.734 68.6114 36.404 69.2714 36.404H72.9674C73.6274 36.404 73.9354 36.734 73.8914 37.394L73.6274 42.872C74.1994 43.4 75.1454 43.906 76.4654 44.39C77.8294 44.83 79.2154 45.05 80.6234 45.05C86.0794 45.05 88.8074 42.828 88.8074 38.384C88.8074 36.228 88.0814 34.534 86.6294 33.302C85.1774 32.026 83.2854 31.014 80.9534 30.266C78.6654 29.474 76.9274 28.792 75.7394 28.22C74.5514 27.604 73.3414 26.812 72.1094 25.844C69.6454 23.996 68.4134 21.158 68.4134 17.33C68.4134 13.502 69.7334 10.334 72.3734 7.826C75.0134 5.318 78.6654 4.064 83.3294 4.064ZM131.417 44.786H134.255C134.915 44.786 135.245 45.116 135.245 45.776V49.01C135.245 49.67 134.915 50 134.255 50H126.797C126.225 50 125.895 49.67 125.807 49.01L125.279 45.116C123.035 48.9 119.449 50.792 114.521 50.792C110.209 50.792 106.887 49.45 104.555 46.766C102.223 44.038 101.057 39.836 101.057 34.16C101.057 28.44 102.399 24.084 105.083 21.092C107.811 18.1 111.309 16.604 115.577 16.604C117.513 16.604 119.229 16.978 120.725 17.726C122.221 18.43 123.321 19.288 124.025 20.3V6.242H120.527C119.867 6.242 119.537 5.912 119.537 5.252V1.754C119.537 1.094 119.867 0.763997 120.527 0.763997H130.427C131.087 0.763997 131.417 1.094 131.417 1.754V44.786ZM124.025 37.592V25.976C123.453 25.096 122.441 24.282 120.989 23.534C119.581 22.786 118.151 22.412 116.699 22.412C111.243 22.412 108.515 26.108 108.515 33.5C108.515 39.176 109.747 42.718 112.211 44.126C113.267 44.742 114.719 45.05 116.567 45.05C118.415 45.05 120.109 44.368 121.649 43.004C123.233 41.64 124.025 39.836 124.025 37.592ZM154.716 50.792C149.48 50.792 145.63 49.274 143.166 46.238C140.746 43.158 139.536 39.11 139.536 34.094C139.536 29.034 140.834 24.854 143.43 21.554C146.026 18.254 149.766 16.604 154.65 16.604C157.07 16.604 159.138 17.066 160.854 17.99C162.614 18.87 163.956 20.08 164.88 21.62C166.64 24.612 167.52 28.066 167.52 31.982C167.52 33.83 167.432 34.842 167.256 35.018C167.08 35.194 166.75 35.282 166.266 35.282H146.862C147.082 38.45 147.852 40.914 149.172 42.674C150.536 44.39 152.868 45.248 156.168 45.248C158.588 45.248 161.074 44.676 163.626 43.532C164.242 43.224 164.682 43.4 164.946 44.06L166.2 47.096C166.42 47.624 166.222 48.064 165.606 48.416C162.702 50 159.072 50.792 154.716 50.792ZM146.862 30.398H160.59C160.678 24.898 158.522 22.148 154.122 22.148C151.526 22.148 149.678 22.984 148.578 24.656C147.522 26.284 146.95 28.198 146.862 30.398ZM180.407 18.254L188.063 42.674L194.993 22.742H191.627C190.967 22.742 190.637 22.412 190.637 21.752V18.32C190.637 17.66 190.967 17.33 191.627 17.33H201.263C201.791 17.33 202.143 17.484 202.319 17.792C202.495 18.1 202.583 18.386 202.583 18.65C202.583 18.87 202.539 19.09 202.451 19.31L191.165 49.076C190.989 49.692 190.549 50 189.845 50H184.169C183.553 50 183.113 49.692 182.849 49.076L173.807 22.742H170.507C169.847 22.742 169.517 22.412 169.517 21.752V18.32C169.517 17.66 169.847 17.33 170.507 17.33H179.153C179.813 17.33 180.231 17.638 180.407 18.254Z" fill="#8800BB"/>
</svg>
