<svg width="311" height="78" viewBox="0 0 311 78" fill="none" xmlns="http://www.w3.org/2000/svg">
<path fill-rule="evenodd" clip-rule="evenodd" d="M2.22256 77.3389H0C0.0386783 77.2249 0.0749628 77.1118 0.108629 77.0002L-0.00292969 77L0.00208681 74L0.774773 74.0013C0.876739 73.5397 0.974588 73.1112 1.05488 72.7832C1.50436 71.0122 3.51208 67.013 4.35112 66.2989C4.65078 66.0418 4.89048 65.6134 4.89048 65.3277C4.89048 64.8992 4.59083 64.785 3.33227 64.7278C2.37337 64.6707 1.74409 64.4993 1.74409 64.3279C1.74409 64.128 2.703 63.0425 3.84169 61.8713C5.01036 60.7001 6.14904 59.4433 6.35881 59.0434C8.03688 56.4153 8.51634 55.3013 8.42645 54.4444C8.33655 53.616 8.21669 53.4731 7.34769 53.3589C6.80831 53.2732 6.38877 53.0732 6.41873 52.9304C6.5386 52.1591 6.83825 51.9021 7.91702 51.5878C8.57627 51.4164 9.23551 51.1022 9.41531 50.8737C9.5951 50.6737 9.92472 50.5023 10.1345 50.5023C10.554 50.5023 10.7338 50.3024 13.5806 46.646C14.5694 45.3892 15.8879 43.7324 16.5172 42.9611C17.7158 41.5615 17.7158 41.5614 17.6858 38.9621V38.962C17.6858 37.2195 17.536 36.0769 17.2364 35.5056C17.0649 35.1582 16.8474 34.7524 16.6827 34.445C16.6171 34.3226 16.5599 34.2158 16.5172 34.1345C16.3674 33.8488 16.3374 33.506 16.4273 33.3632C16.5172 33.2204 16.2475 32.8776 15.798 32.5919C14.7792 31.9635 14.1799 30.5924 14.1799 28.9356C14.1799 27.9072 13.9701 27.3645 13.1011 26.2219C12.1122 24.8793 11.9924 24.5937 11.8725 22.2799C11.7826 20.9088 11.5429 19.5948 11.3331 19.3663C10.8537 18.8235 9.56515 16.424 8.93587 14.9386C8.66618 14.3102 8.33655 12.6248 8.18673 11.2251C8.0369 9.79688 7.64735 7.5688 7.34769 6.22623C7.01807 4.88366 6.62849 3.28401 6.47866 2.65558C6.17901 1.37014 6.29889 0.227539 6.71841 0.227539C6.86823 0.227539 6.98809 0.341793 6.98809 0.456054C6.98809 0.59888 7.22782 0.94166 7.52748 1.25588C7.79717 1.5701 8.3665 2.42706 8.75606 3.14119C9.71496 4.99793 14.1799 9.76832 15.0489 9.88258C15.4085 9.93971 15.9778 9.76833 16.3074 9.48268C16.8768 8.99707 16.9067 9.02562 17.2364 9.88258C17.4461 10.3968 17.7158 10.7967 17.8057 10.7967C17.9256 10.7967 18.3451 11.2823 18.7047 11.8536C19.334 12.8819 24.1285 17.6523 24.518 17.6523C24.6079 17.6523 25.5968 18.1951 26.7055 18.8806C27.8143 19.5662 29.0728 20.3375 29.5223 20.5945C30.5112 21.1944 33.3579 22.2228 33.9572 22.2228C34.197 22.2228 35.036 22.537 35.7851 22.9083C37.0737 23.5653 37.4333 23.6225 41.988 23.5939C46.5129 23.5939 46.8425 23.5653 47.3819 22.9655C47.7115 22.6513 48.0711 22.0514 48.1909 21.6515C48.3108 21.2516 48.6704 20.6231 48.9701 20.2518C49.2997 19.8804 49.5394 19.1949 49.5394 18.7092C49.5394 18.2522 49.7791 17.4524 50.1087 16.9668C50.4084 16.4811 50.738 15.31 50.8279 14.3388C50.9478 13.3961 51.2175 12.2249 51.4872 11.7679C51.7269 11.3108 51.9367 10.5396 51.9367 10.054C51.9367 9.11133 52.8656 8.02584 53.405 8.36862C53.5848 8.45432 53.7346 9.45412 53.7346 10.6253C53.7346 11.9679 53.9444 13.3104 54.3339 14.3673C54.6635 15.2814 54.9332 16.3098 54.9332 16.624C54.9332 16.9668 55.2629 17.7095 55.6824 18.2808C56.1019 18.8521 56.4315 19.4519 56.4315 19.5948C56.4315 19.709 57.0308 20.6802 57.78 21.7372C58.5291 22.7941 59.1284 23.7367 59.1284 23.7939C59.1284 23.8796 59.6378 24.3652 60.2671 24.9365C60.9863 25.5935 61.6755 25.9363 62.2748 25.9363C63.7731 25.9648 65.4812 26.9075 67.9084 29.0499C69.1669 30.1639 70.3356 31.078 70.4854 31.078C70.5908 31.078 71.2151 31.1487 72.0246 31.2403L72.0247 31.2403C72.366 31.2789 72.7403 31.3213 73.1224 31.3636C75.7594 31.7064 78.5462 32.592 80.0744 33.5632C80.6438 33.9345 81.2132 34.2202 81.333 34.2202C81.4828 34.2202 82.1421 34.8772 82.8013 35.677C83.8202 36.9053 84 37.3338 84 38.4764C84 40.5616 82.8613 42.3898 81.6926 42.1613C81.333 42.1042 81.0933 41.7328 81.0034 41.0758C80.8835 40.2474 80.7037 40.0475 80.0445 39.9904C79.4452 39.9332 79.0257 40.1617 78.2765 40.9044C77.7671 41.4472 76.5085 42.3327 75.4897 42.8183C72.9126 44.0752 72.613 44.3894 72.613 45.7605C72.613 46.5604 72.2534 47.6744 71.4443 49.2169C69.7363 52.5305 68.8074 54.5015 68.4777 55.6441C68.2979 56.1868 67.9084 57.4151 67.6387 58.3578C66.9495 60.5287 66.8596 66.9845 67.4888 68.4984C68.4178 70.8122 69.5265 72.5833 70.875 73.8401C70.9734 73.9339 71.0698 74.0273 71.1633 74.119L91.9999 74.1538V73.9871L97.3706 72.7933V39.1395L91.9999 37.9457V35.5013H108.455V37.9457L103.084 39.1395V72.7933L108.455 73.9871V74.1814L112.97 74.1889V74.1008L117.37 73.0207V49.1447L112.97 48.0646V45.7339H121.198L122.455 51.4186H122.683C123.826 49.4858 125.369 47.9699 127.311 46.8708C129.254 45.7339 131.33 45.1654 133.539 45.1654C136.701 45.1654 139.043 46.1886 140.567 48.2351C141.329 49.2963 141.862 50.7933 142.167 52.7261C142.509 54.621 142.681 57.1981 142.681 60.4574V73.0207L147.08 74.1008V74.2459L159.903 74.2674L150.73 49.1447L147.531 48.0646V45.7339H160.329V48.0646L156.558 49.1447L164.614 72.9638H164.843L172.899 49.1447L169.356 48.0646V45.7339H180.212V48.0646L176.898 49.1447L167.773 74.2805L182.828 74.3057V74.1008L187.227 73.0207V49.1447L182.828 48.0646V45.7339H192.769V73.0207L197.169 74.1008V74.3297L206.263 74.3449C205.046 73.3589 204.044 72.1216 203.255 70.6331C201.884 68.0939 201.198 65.0241 201.198 61.4238C201.198 58.1266 201.789 55.2653 202.969 52.8398C204.188 50.4143 205.902 48.5383 208.112 47.2119C210.321 45.8475 212.892 45.1654 215.825 45.1654C218.034 45.1654 219.939 45.5444 221.539 46.3023C223.176 47.0224 224.433 48.0457 225.309 49.3721C226.224 50.6985 226.681 52.2524 226.681 54.0336C226.681 55.4358 226.376 56.5159 225.767 57.2739C225.195 58.0319 224.319 58.4109 223.138 58.4109C222.072 58.4109 221.215 58.1077 220.567 57.5013C219.958 56.8949 219.653 56.0801 219.653 55.0569C219.653 54.1094 219.901 53.2946 220.396 52.6124C220.929 51.9302 221.634 51.4565 222.51 51.1912C221.938 50.0922 221.12 49.2963 220.053 48.8036C219.025 48.3109 217.729 48.0646 216.168 48.0646C213.044 48.0646 210.759 49.0879 209.311 51.1344C207.902 53.143 207.197 56.2885 207.197 60.5711C207.197 62.4281 207.312 64.0388 207.54 65.4031C207.807 66.7295 208.188 67.8665 208.683 68.814C209.445 70.2162 210.454 71.2963 211.711 72.0543C212.968 72.8122 214.454 73.1912 216.168 73.1912C217.92 73.1912 219.596 72.8122 221.196 72.0543C222.795 71.2963 224.167 70.2162 225.309 68.814L227.024 70.1783C225.886 71.9039 224.622 73.3022 223.23 74.3733L235.575 74.3939C235.491 74.0326 235.424 73.6128 235.373 73.1344C235.297 72.4143 235.259 71.3531 235.259 69.9509V48.5762H229.717V46.5297L235.259 45.7339L236.001 38.5711L240.801 37.8889V45.7339H248.114V48.5762H240.801V68.8708C240.801 70.1593 240.82 71.05 240.858 71.5426C240.896 71.9974 240.972 72.3764 241.087 72.6796C241.201 72.9449 241.41 73.1344 241.715 73.2481C242.02 73.3239 242.515 73.3618 243.201 73.3618H247.2V74.4134L256.674 74.4292C256.532 74.2692 256.399 74.1028 256.274 73.9302C255.551 72.8691 255.017 71.3721 254.675 69.4393C254.332 67.5065 254.16 64.9294 254.16 61.708V49.1447L250.332 48.0646V45.7339H259.703V61.8217C259.703 64.2472 259.76 66.0853 259.874 67.3359C260.026 68.5487 260.274 69.4961 260.617 70.1783C261.036 71.0879 261.664 71.789 262.502 72.2817C263.34 72.7364 264.312 72.9638 265.416 72.9638C266.445 72.9638 267.435 72.7743 268.387 72.3954C269.34 72.0164 270.177 71.5047 270.901 70.8605C272.463 69.4582 273.32 67.2791 273.472 64.323V49.1447L268.501 48.0646V45.7339H279.014V73.0207L283.414 74.1008V74.4739L289.788 74.4846C288.16 73.1778 287.346 71.496 287.346 69.4393C287.346 68.2265 287.612 67.2791 288.146 66.5969C288.717 65.8768 289.517 65.5168 290.545 65.5168C291.459 65.5168 292.221 65.7821 292.831 66.3127C293.478 66.8432 293.802 67.5444 293.802 68.416C293.802 69.1361 293.592 69.8183 293.173 70.4625C292.793 71.1068 292.316 71.5805 291.745 71.8837C292.24 72.6038 293.116 73.2102 294.373 73.7029C295.668 74.1576 297.135 74.385 298.773 74.385C300.906 74.385 302.639 73.9492 303.972 73.0775C305.343 72.2059 306.029 70.9931 306.029 69.4393C306.029 68.1886 305.61 67.1843 304.772 66.4264C303.934 65.6684 302.887 65.062 301.63 64.6072C300.411 64.1146 299.173 63.6977 297.916 63.3566C296.354 62.8639 294.849 62.2954 293.402 61.6512C291.955 60.969 290.774 60.0405 289.86 58.8656C288.945 57.6908 288.488 56.137 288.488 54.2041C288.488 51.4755 289.479 49.2963 291.459 47.6667C293.478 45.9991 296.278 45.1654 299.858 45.1654C302.906 45.1654 305.305 45.8096 307.057 47.0982C308.848 48.3488 309.743 50.0732 309.743 52.2713C309.743 53.4462 309.476 54.3936 308.943 55.1137C308.41 55.7959 307.648 56.137 306.658 56.137C305.781 56.137 305.058 55.8717 304.486 55.3411C303.915 54.8105 303.629 54.1283 303.629 53.2946C303.629 52.5745 303.82 51.9302 304.201 51.3618C304.582 50.7554 305.077 50.3196 305.686 50.0543C305.115 49.2584 304.372 48.6899 303.458 48.3488C302.582 47.9699 301.439 47.7804 300.03 47.7804C297.744 47.7804 296.03 48.1972 294.888 49.031C293.745 49.8269 293.173 51.0207 293.173 52.6124C293.173 53.7494 293.44 54.6589 293.973 55.3411C294.545 55.9854 295.364 56.5349 296.43 56.9897C297.497 57.4444 298.811 57.9182 300.373 58.4109C301.668 58.7898 302.944 59.2257 304.201 59.7183C305.458 60.1731 306.6 60.7416 307.629 61.4238C308.657 62.1059 309.476 62.9587 310.086 63.9819C310.695 65.0052 311 66.2748 311 67.7907C311 69.7235 310.467 71.391 309.4 72.7933C308.334 74.1576 306.867 75.1998 305.001 75.9199C304.392 76.1548 303.922 76.3931 303.492 76.611C302.51 77.1089 301.739 77.5 300 77.5H299.997V77.5016L70.4129 77.1177L70.4234 77.3389H67.6209L67.535 77.1129L67.1876 77.1124L67.1568 77.3389H65.7248C65.7238 77.2633 65.7229 77.1869 65.7223 77.1099L2.34406 77.0039C2.30873 77.1092 2.26798 77.2221 2.22256 77.3389ZM3.0085 74.005L65.7209 74.1099V73.326L66.8596 73.5259C67.4589 73.6402 68.1481 73.8687 68.3878 74.0401C68.4269 74.0696 68.4623 74.0944 68.494 74.1145L68.7042 74.1149C68.6993 73.8657 68.1267 72.9341 67.0993 71.5549C65.8108 69.841 65.5411 69.0412 64.8519 65.2134C64.762 64.585 64.762 63.5567 64.8519 62.9282C64.9717 62.2998 65.2115 60.9001 65.3913 59.8432C65.5711 58.7577 65.9306 57.5294 66.1704 57.0723C66.4101 56.6153 66.6198 56.0726 66.6198 55.9012C66.6198 55.4727 67.339 53.9587 69.6464 49.5026C71.8638 45.1892 71.8039 45.0178 68.0882 44.7607C66.7097 44.675 65.1815 44.4179 64.6721 44.218C64.1627 44.018 62.0351 43.7895 59.8476 43.7038C55.8022 43.561 54.6635 43.3325 55.5326 42.7897C55.7723 42.6469 56.2218 42.5041 56.5514 42.5041C57.5702 42.5041 61.5556 40.4188 62.2149 39.5333C63.2637 38.1336 64.5223 35.6199 64.5223 34.9343C64.5223 34.3915 64.3125 34.2487 63.2637 34.1059C62.5445 34.0202 61.4058 33.8774 60.6866 33.7631C59.488 33.5917 59.3382 33.6489 58.0497 34.7915C56.6712 35.9912 56.6413 35.9912 55.0231 35.8198C52.536 35.5342 50.2586 33.6774 50.6481 32.2777C50.8579 31.5065 50.8878 31.5065 51.637 32.2206C52.3562 32.9062 52.8057 32.9347 53.6147 32.392C54.3339 31.8493 54.0642 31.6207 51.7868 30.7923C50.798 30.4496 49.4495 29.9068 48.7603 29.6212C48.0711 29.3069 47.262 29.0784 46.9623 29.0784C46.6627 29.0784 45.7338 28.8785 44.9247 28.65C43.2466 28.1643 40.9692 28.0786 40.6995 28.5071C40.6096 28.6499 40.8793 28.8499 41.2988 28.9642C41.7483 29.0784 42.1379 29.3926 42.2278 29.8211C42.5274 30.9637 42.1678 31.3636 40.8793 31.3636C40.2201 31.3636 39.5908 31.5065 39.5009 31.6493C39.381 31.8207 38.8117 32.192 38.1824 32.5062C36.774 33.1918 36.5043 33.7346 37.1636 34.7058C37.5531 35.2485 37.5831 35.5056 37.3433 35.5627C37.1336 35.6484 36.5043 35.9912 35.905 36.3911C34.7663 37.1338 34.2569 37.2481 34.2569 36.791C34.2569 36.6482 33.9572 36.2769 33.6276 35.9626L32.9684 35.3913L33.7774 34.3916C34.7363 33.1918 36.4743 31.7921 37.8827 31.1351C38.4521 30.878 38.9315 30.421 38.9915 30.1353C39.0814 29.7354 38.8716 29.6497 37.8528 29.6497C36.6841 29.6497 36.6242 29.5926 36.7141 28.907C36.774 28.3072 37.1636 27.9644 38.5719 27.2503C40.1901 26.4504 40.5497 26.3933 43.2166 26.4219C47.9212 26.4504 51.7868 26.7075 52.8656 27.0217C53.4349 27.1931 54.7534 27.593 55.8322 27.9358C56.911 28.2786 58.2594 28.6499 58.8288 28.7928C60.6567 29.1927 63.3236 30.1925 63.8031 30.6495C64.0428 30.878 64.5522 31.078 64.9118 31.078C65.2714 31.078 66.0805 31.1637 66.7097 31.2494C67.6986 31.4208 67.8185 31.3636 67.8185 30.8495C67.8185 29.3926 63.6832 27.1931 60.387 26.9075C59.2783 26.8218 57.4803 26.5647 56.3716 26.3362C55.2629 26.1076 53.4349 25.9363 52.2962 25.9363C51.1575 25.9363 49.2098 25.6792 47.9812 25.3935C44.5951 24.5651 40.4298 24.3366 38.7517 24.9079C38.7007 24.9248 38.651 24.9413 38.6026 24.9574C38.0288 25.1483 37.6316 25.2804 37.225 25.3237C36.3112 25.421 35.3497 25.0695 32.2271 23.9281C32.1078 23.8845 31.9853 23.8398 31.8596 23.7939C29.1327 22.7941 25.5668 20.6231 22.3305 17.938C20.9521 16.8239 19.7535 15.9384 19.6936 16.0241C19.4538 16.2526 20.3828 18.1379 21.2817 19.2806C21.7312 19.8804 23.3494 21.7086 24.8776 23.3082C26.4059 24.9365 27.6644 26.3933 27.6644 26.5361C27.6644 27.2217 25.2372 26.1362 24.578 25.1364C24.4581 24.965 24.1285 24.7936 23.8888 24.7936C22.9598 24.7936 24.0685 26.7361 26.6156 29.5926C27.3648 30.421 27.9641 31.3636 27.9641 31.6493C27.9641 31.6645 27.9641 31.6794 27.9641 31.694C27.9644 31.9407 27.9645 32.0907 27.891 32.1515C27.777 32.2457 27.486 32.1259 26.7442 31.8204L26.6756 31.7921C24.6379 30.9923 24.0985 31.3636 25.417 32.6205C26.3759 33.5632 26.4059 34.3916 25.417 34.6201C25.0275 34.7058 24.4881 35.1628 24.2483 35.5913C24.0086 36.0483 23.5891 36.5911 23.3194 36.791C22.8999 37.1338 22.78 37.1338 22.5403 36.7625C22.1208 36.1055 22.2406 34.0202 22.78 32.9633C23.2295 32.0207 23.2295 31.9064 22.81 31.4493C22.5403 31.1637 22.2107 30.5924 22.1208 30.1353C22.0009 29.7069 21.7912 29.2784 21.6413 29.1927C21.102 28.8785 21.4016 28.2786 22.2706 27.9358L23.1696 27.593L22.1208 26.1933C21.5514 25.4221 21.072 24.7079 21.072 24.5651C21.072 24.4509 20.7124 23.7082 20.3228 22.9369C19.9033 22.1371 19.5737 21.3658 19.5737 21.1658C19.5737 20.9659 19.1242 20.0804 18.5848 19.1663C18.0155 18.2522 17.2364 16.7383 16.8468 15.7956C16.3074 14.5102 15.5583 13.5389 13.8203 11.8536C12.5317 10.6253 11.4829 9.51125 11.4829 9.33986C11.4829 8.99707 10.9735 8.99707 10.7638 9.33986C10.4341 9.82546 11.0934 10.9681 13.2509 13.6532C14.4196 15.1386 15.3785 16.5097 15.3785 16.7097C15.3785 17.3095 14.6593 17.1381 13.4008 16.2241C12.7715 15.767 12.1422 15.3671 12.0223 15.3671C11.0335 15.3385 12.9812 18.8521 15.6482 21.9942C17.8357 24.5651 17.9555 24.9365 16.2175 23.9367C14.959 23.2225 14.4795 23.2225 14.4795 23.9367C14.4795 24.6222 15.5583 26.6218 16.1576 27.1074C16.3973 27.3074 16.7869 27.8787 17.0266 28.4214C17.2663 28.9356 17.5959 29.3641 17.7458 29.3641C17.9256 29.3641 18.0754 29.4783 18.0754 29.6497C18.0754 29.7926 17.8057 29.9354 17.5061 29.9354C16.3074 29.9354 16.4573 30.5924 17.9256 31.8492C19.0044 32.7919 19.274 33.1918 19.0343 33.4203C18.405 34.0202 18.6148 35.3056 19.4239 35.8198C20.0532 36.2197 20.173 36.5054 20.173 37.6194C20.173 38.6192 20.3228 39.0191 20.7723 39.3048C21.5814 39.7618 21.5514 40.9044 20.7124 41.4472C19.4838 42.1899 15.9478 45.7605 14.7792 47.3602C14.1499 48.2171 13.161 49.4454 12.5617 50.0739L11.453 51.2165L12.3819 51.445C12.8614 51.5593 13.2809 51.7878 13.2809 51.9306C13.2809 52.0734 12.7115 52.5591 12.0223 53.0161C11.0634 53.6445 10.4342 54.4444 9.59512 56.0154C8.93587 57.2152 7.85709 58.9291 7.16788 59.8432C5.69956 61.7285 5.07029 62.7854 5.28005 62.9568C5.60967 63.271 9.02576 62.1284 10.0146 61.3571C10.7338 60.8144 11.483 60.5002 12.0523 60.5002C12.5617 60.5002 12.9812 60.5573 12.9812 60.6144C12.9812 60.9858 10.7638 64.4422 10.2543 64.8421C9.92472 65.1277 9.71497 65.4705 9.83484 65.6419C10.1645 66.1275 11.1533 65.9561 12.3819 65.1849C13.9701 64.1851 14.5994 64.4136 14.3297 65.9276C14.2098 66.556 14.2398 67.0702 14.3896 67.0987C15.4085 67.1559 16.697 67.3844 16.8168 67.4987C17.0865 67.7558 14.1199 68.7841 13.1011 68.7841C12.292 68.7841 11.9924 68.6413 11.7227 68.0414C11.423 67.4415 11.2133 67.3273 10.554 67.4701C8.30659 67.8986 6.7184 67.9557 6.14905 67.6701C5.5797 67.3844 5.45984 67.4701 4.77063 68.8698C4.30004 69.7849 3.52202 72.1316 3.0085 74.005ZM53.7346 17.2524C53.7346 18.1094 55.173 21.3944 56.2517 23.0226C56.6712 23.6796 57.0308 24.2795 57.0308 24.3652C57.0308 24.4509 55.8022 24.508 54.3339 24.508C50.3485 24.508 48.9101 23.7939 49.3596 22.08C49.5694 21.2801 50.2885 21.1087 50.5582 21.7943C50.6481 22.0228 50.8579 22.2228 51.0077 22.2228C51.2175 22.2228 51.2175 21.9657 51.0377 21.4801C50.8579 21.0802 50.738 20.2232 50.738 19.5948V18.4236L51.4272 19.0235C51.8168 19.3662 52.2063 19.6519 52.2962 19.6519C52.3861 19.6519 52.536 18.9949 52.6259 18.2236C52.7158 17.4238 52.8956 16.6526 52.9855 16.5097C53.2851 16.0241 53.7346 16.4812 53.7346 17.2524ZM76.6584 33.0776C77.3176 33.3918 78.0068 33.6489 78.2166 33.6489C78.8758 33.6489 80.1344 34.5058 81.8424 36.0483C83.4007 37.5052 83.7602 38.4193 83.2208 39.7618C82.9512 40.4474 82.6216 40.3046 81.8724 39.1905C80.8236 37.5623 78.7859 36.791 75.4597 36.791C73.3322 36.791 72.4032 36.9339 71.0548 37.448C70.1258 37.8194 69.1669 38.2479 68.9572 38.4192C68.1181 39.0762 63.4135 41.0758 62.7543 41.0758C62.0651 41.0758 62.0651 41.0758 62.9341 40.276C64.0428 39.3048 65.7209 36.9624 65.7209 36.4197C65.7209 35.8198 66.7697 35.02 67.8784 34.82C68.5676 34.6772 68.9871 34.363 69.2868 33.7917C69.5265 33.3061 69.8561 32.849 70.0359 32.7348C70.2157 32.6205 71.5043 32.5062 72.9127 32.5062C74.8904 32.5062 75.7594 32.6491 76.6584 33.0776ZM78.0967 38.3907C78.3065 38.5906 77.7072 39.9332 77.4075 39.9332C77.2877 39.9332 76.6883 40.3331 76.0591 40.7902C75.4298 41.2758 74.0514 42.047 73.0325 42.5041C70.8151 43.5324 69.077 43.6181 67.0993 42.7897C65.7209 42.247 65.2714 41.6471 66.2303 41.6471C66.5 41.6471 67.6087 41.1615 68.6875 40.5331C69.7663 39.9332 71.4743 39.2191 72.4632 38.9334C73.0086 38.7916 73.5449 38.6411 73.9414 38.5299C74.2637 38.4394 74.4936 38.3749 74.5608 38.3621C75.1301 38.1907 77.9169 38.2193 78.0967 38.3907ZM274.302 74.4587L270.504 74.4523C271.799 73.4452 272.865 72.21 273.701 70.7468H273.929L274.302 74.4587ZM133.31 74.2229L126.74 74.2119V74.1008L122.912 73.0207V57.8424C123.064 54.8863 123.921 52.7071 125.483 51.3049C127.083 49.9027 128.987 49.2016 131.196 49.2016C132.377 49.2016 133.387 49.4479 134.225 49.9406C135.101 50.3954 135.767 51.0775 136.224 51.9871C136.567 52.6693 136.796 53.6167 136.91 54.8295C137.062 56.0422 137.139 57.8803 137.139 60.3437V73.0207L133.31 74.1008V74.2229ZM186.427 36.5814C186.427 35.4823 186.751 34.6107 187.398 33.9664C188.046 33.3221 188.903 33 189.97 33C191.074 33 191.95 33.3221 192.598 33.9664C193.245 34.6107 193.569 35.4823 193.569 36.5814C193.569 37.6426 193.245 38.4953 192.598 39.1395C191.95 39.7838 191.074 40.1059 189.97 40.1059C188.865 40.1059 187.989 39.8028 187.341 39.1964C186.732 38.5521 186.427 37.6805 186.427 36.5814Z" fill="#551B8A"/>
</svg>
