<svg width="953" height="335" viewBox="0 0 953 335" fill="none" xmlns="http://www.w3.org/2000/svg">
<path d="M531.3 98.969L450.15 142.797L479.216 55.265L505.261 77.119L531.3 98.969Z" fill="#FF744A"/>
<path d="M251.108 188.618L256.193 280.707L189.381 217.123L220.248 202.868L251.108 188.618Z" fill="#FF744A"/>
<path d="M825.3 233.53L770.275 307.547L759.624 215.932L792.465 224.732L825.3 233.53Z" fill="#DF2B50"/>
<path d="M922.1 244.24L880.764 326.688L854.366 238.314L888.236 241.277L922.1 244.24Z" fill="#16CBF0"/>
<path d="M729.7 204.79L666.065 271.55L666.659 179.32L698.183 192.056L729.7 204.79Z" fill="#FFD321"/>
<path d="M80.2073 241.596L54.5618 330.189L12.5263 248.093L46.3702 244.844L80.2073 241.596Z" fill="#FFD321"/>
<path d="M634.2 159.48L561.893 216.734L575.317 125.484L604.761 142.484L634.2 159.48Z" fill="#2E0C3B"/>
<path d="M166.177 222.578L154 314L100.216 239.073L133.2 230.825L166.177 222.578Z" fill="#2E0C3B"/>
<path d="M329.007 137L351.901 226.343L274 176.965L301.506 156.981L329.007 137Z" fill="#DF2B50"/>
<path d="M386.142 78.3562L426.462 161.305L340.251 128.527L363.199 103.439L386.142 78.3562Z" fill="#16CBF0"/>
<path d="M952.5 246C630.88 244.371 430.11 6 430.11 6C430.11 6 343 243.5 1 246.5" stroke="#453427" stroke-width="6"/>
</svg>
